<svg xmlns="http://www.w3.org/2000/svg" viewBox="0 0 3847.89 1376.45"><defs><style>.cls-1{fill:#fdf3ed;}.cls-1,.cls-2,.cls-3,.cls-4,.cls-5,.cls-6{opacity:0.13;}.cls-2,.cls-8{fill:#e98854;}.cls-10,.cls-3{fill:#f4cbb4;}.cls-4,.cls-9{fill:#eea37c;}.cls-5,.cls-7{fill:#e56f2e;}</style></defs><g id="Layer_2" data-name="Layer 2"><g id="Layer_1-2" data-name="Layer 1"><path class="cls-1" d="M305.31,473.12,238.8,604a14.51,14.51,0,0,0,0,12.94L305.31,747.8a11.24,11.24,0,0,0,9.87,6.47H448.23a11.24,11.24,0,0,0,9.87-6.47l66.53-130.88a14.51,14.51,0,0,0,0-12.94L458.1,473.12a11.22,11.22,0,0,0-9.87-6.47h-133A11.22,11.22,0,0,0,305.31,473.12Z"/><path class="cls-1" d="M305.31,162,238.8,292.87a14.51,14.51,0,0,0,0,12.94l66.51,130.83a11.24,11.24,0,0,0,9.87,6.47H448.23a11.24,11.24,0,0,0,9.87-6.47l66.52-130.83a14.45,14.45,0,0,0,0-12.94L458.1,162a11.22,11.22,0,0,0-9.87-6.47h-133A11.24,11.24,0,0,0,305.31,162Z"/><path class="cls-2" d="M68.05,317.57,1.53,448.41a14.42,14.42,0,0,0,0,12.93L68.05,592.21a11.24,11.24,0,0,0,9.87,6.47H211a11.24,11.24,0,0,0,9.87-6.47l66.5-130.87a14.42,14.42,0,0,0,0-12.93l-66.5-130.84A11.22,11.22,0,0,0,211,311.1H77.92A11.22,11.22,0,0,0,68.05,317.57Z"/><path class="cls-1" d="M542.57,628.69,476.06,759.56a14.49,14.49,0,0,0,0,12.93l66.51,130.82a11.22,11.22,0,0,0,9.87,6.47h133a11.24,11.24,0,0,0,9.87-6.47L761.9,772.49a14.51,14.51,0,0,0,0-12.94L695.36,628.69a11.24,11.24,0,0,0-9.87-6.47h-133A11.22,11.22,0,0,0,542.57,628.69Z"/><path class="cls-3" d="M1017.12,317.57,950.6,448.41a14.42,14.42,0,0,0,0,12.93l66.52,130.87a11.21,11.21,0,0,0,9.86,6.47h133.07a11.22,11.22,0,0,0,9.87-6.47l66.5-130.87a14.49,14.49,0,0,0,0-12.93l-66.5-130.84a11.2,11.2,0,0,0-9.87-6.47H1027A11.2,11.2,0,0,0,1017.12,317.57Z"/><path class="cls-2" d="M779.86,162,713.32,292.87a14.51,14.51,0,0,0,0,12.94l66.54,130.83a11.24,11.24,0,0,0,9.87,6.47h133a11.21,11.21,0,0,0,9.86-6.47l66.54-130.83a14.51,14.51,0,0,0,0-12.94L932.63,162a11.2,11.2,0,0,0-9.86-6.47h-133A11.22,11.22,0,0,0,779.86,162Z"/><path class="cls-4" d="M1491.64,6.47l-66.51,130.86a14.42,14.42,0,0,0,0,12.93l66.51,130.84a11.21,11.21,0,0,0,9.87,6.47h133.06a11.22,11.22,0,0,0,9.87-6.47L1711,150.26a14.42,14.42,0,0,0,0-12.93L1644.44,6.47A11.24,11.24,0,0,0,1634.57,0H1501.51A11.23,11.23,0,0,0,1491.64,6.47Z"/><path class="cls-2" d="M1728.91,473.12,1662.39,604a14.45,14.45,0,0,0,0,12.94l66.52,130.88a11.24,11.24,0,0,0,9.87,6.47h133.06a11.24,11.24,0,0,0,9.87-6.47l66.52-130.88a14.51,14.51,0,0,0,0-12.94l-66.52-130.86a11.22,11.22,0,0,0-9.87-6.47H1738.78A11.22,11.22,0,0,0,1728.91,473.12Z"/><path class="cls-3" d="M1254.39,162l-66.52,130.85a14.51,14.51,0,0,0,0,12.94l66.52,130.83a11.24,11.24,0,0,0,9.87,6.47h133a11.21,11.21,0,0,0,9.86-6.47l66.53-130.83a14.51,14.51,0,0,0,0-12.94L1407.16,162a11.2,11.2,0,0,0-9.86-6.47h-133A11.22,11.22,0,0,0,1254.39,162Z"/><path class="cls-1" d="M1491.64,628.69l-66.51,130.86a14.45,14.45,0,0,0,0,12.94l66.51,130.82a11.23,11.23,0,0,0,9.87,6.47h133.06a11.24,11.24,0,0,0,9.87-6.47L1711,772.49a14.45,14.45,0,0,0,0-12.94l-66.52-130.86a11.24,11.24,0,0,0-9.87-6.47H1501.51A11.23,11.23,0,0,0,1491.64,628.69Z"/><path class="cls-4" d="M1254.39,473.12,1187.87,604a14.51,14.51,0,0,0,0,12.94l66.52,130.88a11.24,11.24,0,0,0,9.87,6.47h133a11.21,11.21,0,0,0,9.86-6.47l66.53-130.88a14.51,14.51,0,0,0,0-12.94l-66.53-130.86a11.2,11.2,0,0,0-9.86-6.47h-133A11.22,11.22,0,0,0,1254.39,473.12Z"/><path class="cls-4" d="M779.86,473.11,713.32,604a14.51,14.51,0,0,0,0,12.94L779.86,747.8a11.24,11.24,0,0,0,9.87,6.47h133a11.21,11.21,0,0,0,9.86-6.47l66.54-130.88a14.51,14.51,0,0,0,0-12.94L932.63,473.11a11.2,11.2,0,0,0-9.86-6.46h-133A11.23,11.23,0,0,0,779.86,473.11Z"/><path class="cls-5" d="M3389.78,317.57l-66.54,130.88a14.51,14.51,0,0,0,0,12.94l66.54,130.82a11.22,11.22,0,0,0,9.87,6.47h133a11.22,11.22,0,0,0,9.87-6.47l66.53-130.82a14.51,14.51,0,0,0,0-12.94l-66.53-130.88a11.22,11.22,0,0,0-9.87-6.47h-133A11.22,11.22,0,0,0,3389.78,317.57Z"/><path class="cls-1" d="M3389.78,628.69l-66.54,130.86a14.51,14.51,0,0,0,0,12.94l66.54,130.82a11.24,11.24,0,0,0,9.87,6.47h133a11.24,11.24,0,0,0,9.87-6.47l66.53-130.82a14.51,14.51,0,0,0,0-12.94l-66.53-130.86a11.24,11.24,0,0,0-9.87-6.47h-133A11.24,11.24,0,0,0,3389.78,628.69Z"/><path class="cls-3" d="M3627,473.13,3560.51,604a14.45,14.45,0,0,0,0,12.94L3627,747.8a11.23,11.23,0,0,0,9.87,6.47h133a11.22,11.22,0,0,0,9.87-6.47l66.54-130.88a14.45,14.45,0,0,0,0-12.94l-66.54-130.85a11.21,11.21,0,0,0-9.86-6.47H3636.9A11.23,11.23,0,0,0,3627,473.13Z"/><path class="cls-5" d="M3152.49,162,3086,292.87a14.51,14.51,0,0,0,0,12.94l66.53,130.86a11.21,11.21,0,0,0,9.86,6.47h133.09a11.24,11.24,0,0,0,9.87-6.47l66.52-130.86a14.45,14.45,0,0,0,0-12.94L3305.31,162a11.22,11.22,0,0,0-9.87-6.47H3162.35A11.2,11.2,0,0,0,3152.49,162Z"/><path class="cls-1" d="M2678,473.13,2611.45,604a14.48,14.48,0,0,0,0,12.94L2678,747.8a11.24,11.24,0,0,0,9.87,6.47h133a11.24,11.24,0,0,0,9.87-6.47l66.54-130.88a14.51,14.51,0,0,0,0-12.94l-66.54-130.85a11.24,11.24,0,0,0-9.87-6.47h-133A11.24,11.24,0,0,0,2678,473.13Z"/><path class="cls-4" d="M2915.25,628.69,2848.7,759.55a14.45,14.45,0,0,0,0,12.94l66.55,130.82a11.21,11.21,0,0,0,9.86,6.47h133a11.23,11.23,0,0,0,9.87-6.47l66.51-130.82a14.48,14.48,0,0,0,0-12.94L3068,628.69a11.23,11.23,0,0,0-9.87-6.47h-133A11.21,11.21,0,0,0,2915.25,628.69Z"/><path class="cls-4" d="M2203.41,784.25,2136.9,915.09a14.49,14.49,0,0,0,0,12.93l66.51,130.86a11.23,11.23,0,0,0,9.87,6.47h133.08a11.24,11.24,0,0,0,9.87-6.47L2422.75,928a14.42,14.42,0,0,0,0-12.93l-66.52-130.84a11.22,11.22,0,0,0-9.87-6.47H2213.28A11.21,11.21,0,0,0,2203.41,784.25Z"/><path class="cls-5" d="M1966.15,628.69l-66.53,130.82a14.51,14.51,0,0,0,0,12.94l66.53,130.86a11.24,11.24,0,0,0,9.87,6.47h133.09a11.23,11.23,0,0,0,9.87-6.47l66.49-130.87a14.49,14.49,0,0,0,0-12.93L2119,628.69a11.23,11.23,0,0,0-9.87-6.47H1976A11.24,11.24,0,0,0,1966.15,628.69Z"/><path class="cls-4" d="M1728.91,162l-66.52,130.82a14.45,14.45,0,0,0,0,12.94l66.52,130.86a11.24,11.24,0,0,0,9.87,6.47h133.07a11.23,11.23,0,0,0,9.87-6.48l66.51-130.85a14.51,14.51,0,0,0,0-12.94L1881.72,162a11.22,11.22,0,0,0-9.87-6.47H1738.78A11.22,11.22,0,0,0,1728.91,162Z"/><path class="cls-3" d="M1966.17,317.57l-66.54,130.88a14.45,14.45,0,0,0,0,12.94l66.54,130.82a11.2,11.2,0,0,0,9.86,6.47h133.08a11.23,11.23,0,0,0,9.87-6.47l66.49-130.82a14.49,14.49,0,0,0,0-12.93L2119,317.57a11.21,11.21,0,0,0-9.87-6.47H1976A11.2,11.2,0,0,0,1966.17,317.57Z"/><path class="cls-4" d="M2440.69,628.69l-66.51,130.87a14.49,14.49,0,0,0,0,12.93l66.51,130.82a11.24,11.24,0,0,0,9.87,6.47h133.06a11.24,11.24,0,0,0,9.87-6.47L2660,772.49a14.45,14.45,0,0,0,0-12.94l-66.53-130.86a11.24,11.24,0,0,0-9.87-6.47H2450.56A11.24,11.24,0,0,0,2440.69,628.69Z"/><path class="cls-3" d="M2203.41,162,2136.9,292.88a14.49,14.49,0,0,0,0,12.93l66.51,130.86a11.23,11.23,0,0,0,9.87,6.47h133.08a11.24,11.24,0,0,0,9.87-6.47l66.52-130.86a14.45,14.45,0,0,0,0-12.94L2356.23,162a11.22,11.22,0,0,0-9.87-6.47H2213.28A11.23,11.23,0,0,0,2203.41,162Z"/><path class="cls-4" d="M2440.69,317.57l-66.51,130.88a14.51,14.51,0,0,0,0,12.94l66.51,130.82a11.24,11.24,0,0,0,9.87,6.47h133.06a11.22,11.22,0,0,0,9.87-6.47L2660,461.39a14.45,14.45,0,0,0,0-12.94l-66.53-130.88a11.22,11.22,0,0,0-9.87-6.47H2450.56A11.22,11.22,0,0,0,2440.69,317.57Z"/><path class="cls-2" d="M2915.25,317.57l-66.56,130.88a14.48,14.48,0,0,0,0,12.94l66.55,130.82a11.2,11.2,0,0,0,9.86,6.47h133a11.23,11.23,0,0,0,9.87-6.47l66.51-130.82a14.48,14.48,0,0,0,0-12.94L3068,317.57a11.21,11.21,0,0,0-9.87-6.47h-133A11.2,11.2,0,0,0,2915.25,317.57Z"/><g class="cls-6"><path class="cls-7" d="M1254.41,784.24l-66.54,130.88a14.51,14.51,0,0,0,0,12.94l66.54,130.83a11.23,11.23,0,0,0,9.87,6.46h133a11.23,11.23,0,0,0,9.87-6.46l66.53-130.83a14.49,14.49,0,0,0,0-12.93l-66.53-130.89a11.24,11.24,0,0,0-9.87-6.47h-133A11.24,11.24,0,0,0,1254.41,784.24Z"/><path class="cls-8" d="M1254.41,1095.36l-66.54,130.87a14.51,14.51,0,0,0,0,12.94L1254.41,1370a11.22,11.22,0,0,0,9.87,6.47h133a11.22,11.22,0,0,0,9.87-6.47l66.53-130.81a14.51,14.51,0,0,0,0-12.94l-66.53-130.87a11.24,11.24,0,0,0-9.87-6.47h-133A11.24,11.24,0,0,0,1254.41,1095.36Z"/><path class="cls-9" d="M1491.66,939.8l-66.52,130.86a14.42,14.42,0,0,0,0,12.93l66.52,130.88a11.23,11.23,0,0,0,9.87,6.47h133a11.21,11.21,0,0,0,9.87-6.47L1711,1083.59a14.42,14.42,0,0,0,0-12.93L1644.45,939.8a11.23,11.23,0,0,0-9.87-6.47h-133A11.22,11.22,0,0,0,1491.66,939.8Z"/><path class="cls-9" d="M1017.12,628.69,950.59,759.55a14.42,14.42,0,0,0,0,12.93l66.53,130.86a11.21,11.21,0,0,0,9.86,6.47h133.09a11.24,11.24,0,0,0,9.87-6.47l66.52-130.86a14.42,14.42,0,0,0,0-12.93l-66.52-130.86a11.24,11.24,0,0,0-9.87-6.47H1027A11.21,11.21,0,0,0,1017.12,628.69Z"/><path class="cls-9" d="M779.88,1095.36l-66.56,130.86a14.5,14.5,0,0,0,0,13L779.87,1370a11.22,11.22,0,0,0,9.87,6.47h133a11.23,11.23,0,0,0,9.87-6.47l66.51-130.82a14.42,14.42,0,0,0,0-12.93l-66.51-130.87a11.23,11.23,0,0,0-9.87-6.47h-133A11.21,11.21,0,0,0,779.88,1095.36Z"/><path class="cls-10" d="M779.88,784.24,713.32,915.12a14.51,14.51,0,0,0,0,12.94l66.55,130.83a11.23,11.23,0,0,0,9.87,6.46h133a11.21,11.21,0,0,0,9.87-6.47l66.51-130.82a14.42,14.42,0,0,0,0-12.93L932.66,784.24a11.23,11.23,0,0,0-9.87-6.47h-133A11.21,11.21,0,0,0,779.88,784.24Z"/></g></g></g></svg>